<mxfile host="Electron" agent="Mozilla/5.0 (X11; Linux x86_64) AppleWebKit/537.36 (KHTML, like Gecko) draw.io/26.1.1 Chrome/132.0.6834.210 Electron/34.3.3 Safari/537.36" version="26.1.1">
  <diagram name="Page-1" id="rKe9kVgv3biZJBakuUSt">
    <mxGraphModel dx="1218" dy="828" grid="1" gridSize="10" guides="1" tooltips="1" connect="1" arrows="1" fold="1" page="1" pageScale="1" pageWidth="827" pageHeight="1169" math="0" shadow="0">
      <root>
        <mxCell id="0" />
        <mxCell id="1" parent="0" />
        <mxCell id="-6YgLkk7f00EV7vf-u2d-8" style="edgeStyle=orthogonalEdgeStyle;rounded=0;orthogonalLoop=1;jettySize=auto;html=1;exitX=1;exitY=0.5;exitDx=0;exitDy=0;entryX=0;entryY=0.5;entryDx=0;entryDy=0;" edge="1" parent="1" source="-6YgLkk7f00EV7vf-u2d-1" target="-6YgLkk7f00EV7vf-u2d-3">
          <mxGeometry relative="1" as="geometry" />
        </mxCell>
        <mxCell id="-6YgLkk7f00EV7vf-u2d-1" value="数据采集" style="rounded=0;whiteSpace=wrap;html=1;fontSize=16;" vertex="1" parent="1">
          <mxGeometry x="120" y="280" width="120" height="60" as="geometry" />
        </mxCell>
        <mxCell id="-6YgLkk7f00EV7vf-u2d-9" style="edgeStyle=orthogonalEdgeStyle;rounded=0;orthogonalLoop=1;jettySize=auto;html=1;exitX=1;exitY=0.5;exitDx=0;exitDy=0;entryX=0;entryY=0.5;entryDx=0;entryDy=0;" edge="1" parent="1" source="-6YgLkk7f00EV7vf-u2d-3" target="-6YgLkk7f00EV7vf-u2d-4">
          <mxGeometry relative="1" as="geometry" />
        </mxCell>
        <mxCell id="-6YgLkk7f00EV7vf-u2d-3" value="特征提取" style="rounded=0;whiteSpace=wrap;html=1;fontSize=16;" vertex="1" parent="1">
          <mxGeometry x="280" y="280" width="120" height="60" as="geometry" />
        </mxCell>
        <mxCell id="-6YgLkk7f00EV7vf-u2d-10" style="edgeStyle=orthogonalEdgeStyle;rounded=0;orthogonalLoop=1;jettySize=auto;html=1;exitX=1;exitY=0.5;exitDx=0;exitDy=0;entryX=0;entryY=0.5;entryDx=0;entryDy=0;" edge="1" parent="1" source="-6YgLkk7f00EV7vf-u2d-4" target="-6YgLkk7f00EV7vf-u2d-5">
          <mxGeometry relative="1" as="geometry" />
        </mxCell>
        <mxCell id="-6YgLkk7f00EV7vf-u2d-4" value="模态对齐" style="rounded=0;whiteSpace=wrap;html=1;fontSize=16;" vertex="1" parent="1">
          <mxGeometry x="440" y="280" width="120" height="60" as="geometry" />
        </mxCell>
        <mxCell id="-6YgLkk7f00EV7vf-u2d-11" style="edgeStyle=orthogonalEdgeStyle;rounded=0;orthogonalLoop=1;jettySize=auto;html=1;exitX=1;exitY=0.5;exitDx=0;exitDy=0;" edge="1" parent="1" source="-6YgLkk7f00EV7vf-u2d-5" target="-6YgLkk7f00EV7vf-u2d-6">
          <mxGeometry relative="1" as="geometry" />
        </mxCell>
        <mxCell id="-6YgLkk7f00EV7vf-u2d-5" value="多模态语义融合" style="rounded=0;whiteSpace=wrap;html=1;fontSize=16;" vertex="1" parent="1">
          <mxGeometry x="600" y="280" width="120" height="60" as="geometry" />
        </mxCell>
        <mxCell id="-6YgLkk7f00EV7vf-u2d-12" style="edgeStyle=orthogonalEdgeStyle;rounded=0;orthogonalLoop=1;jettySize=auto;html=1;exitX=1;exitY=0.5;exitDx=0;exitDy=0;entryX=0;entryY=0.5;entryDx=0;entryDy=0;" edge="1" parent="1" source="-6YgLkk7f00EV7vf-u2d-6" target="-6YgLkk7f00EV7vf-u2d-7">
          <mxGeometry relative="1" as="geometry" />
        </mxCell>
        <mxCell id="-6YgLkk7f00EV7vf-u2d-6" value="上下文增强推理" style="rounded=0;whiteSpace=wrap;html=1;fontSize=16;" vertex="1" parent="1">
          <mxGeometry x="760" y="280" width="120" height="60" as="geometry" />
        </mxCell>
        <mxCell id="-6YgLkk7f00EV7vf-u2d-7" value="输出响应" style="rounded=0;whiteSpace=wrap;html=1;fontSize=16;" vertex="1" parent="1">
          <mxGeometry x="920" y="280" width="120" height="60" as="geometry" />
        </mxCell>
      </root>
    </mxGraphModel>
  </diagram>
</mxfile>
